<svg xmlns="http://www.w3.org/2000/svg" width="90" height="90" viewBox="0 0 90 90" xmlns:xlink="http://www.w3.org/1999/xlink">
  <defs>
    <rect id="a" width="60" height="60" rx="13.331"/>
    <filter id="b" width="175%" height="175%" x="-37.5%" y="-37.5%" filterUnits="objectBoundingBox">
      <feOffset in="SourceAlpha" result="shadowOffsetOuter1"/>
      <feGaussianBlur stdDeviation="7.5" in="shadowOffsetOuter1" result="shadowBlurOuter1"/>
      <feColorMatrix values="0 0 0 0 0 0 0 0 0 0 0 0 0 0 0 0 0 0 0.2 0" in="shadowBlurOuter1"/>
    </filter>
    <linearGradient id="d" x1="50%" x2="50%" y1="0%" y2="100%">
      <stop stop-color="#FF8126" offset="0%"/>
      <stop stop-color="#FF117E" offset="100%"/>
    </linearGradient>
  </defs>
  <g fill="none" fill-rule="evenodd" transform="translate(15 15)">
    <mask id="c" fill="white">
      <use xlink:href="#a"/>
    </mask>
    <use fill="black" filter="url(#b)" xlink:href="#a"/>
    <use fill="#FFFFFF" xlink:href="#a"/>
    <g mask="url(#c)">
      <g transform="translate(-1 -1)">
        <rect width="63" height="63" fill="url(#d)"/>
        <path d="M0,0 L63,0 L63,63 L0,63 L0,0 Z M31.5,0 C14.1030304,3.19577147e-15 -2.13051432e-15,14.1030304 1.42108547e-14,31.5 C1.6341369e-14,48.8969696 14.1030304,63 31.5,63 C48.8969696,63 63,48.8969696 63,31.5 C63,14.1030304 48.8969696,-3.19577147e-15 31.5,0 Z"/>
        <polyline stroke="#FFFFFF" stroke-width="2" points="31.992 0 31.992 31.992 0 31.992" transform="matrix(1 0 0 -1 15.504 47.742)"/>
        <polyline stroke="#FFFFFF" stroke-width="2" points="27.07 0 27.07 27.07 0 27.07" transform="matrix(1 0 0 -1 15.504 47.742)"/>
        <polyline stroke="#FFFFFF" stroke-width="2" points="22.148 0 22.148 22.148 0 22.148" transform="matrix(1 0 0 -1 15.504 47.742)"/>
      </g>
    </g>
  </g>
</svg>
