<svg xmlns="http://www.w3.org/2000/svg" width="90" height="90" viewBox="0 0 90 90" xmlns:xlink="http://www.w3.org/1999/xlink">
  <defs>
    <rect id="a" width="60" height="60" rx="13.331"/>
    <filter id="b" width="175%" height="175%" x="-37.5%" y="-37.5%" filterUnits="objectBoundingBox">
      <feOffset in="SourceAlpha" result="shadowOffsetOuter1"/>
      <feGaussianBlur stdDeviation="7.5" in="shadowOffsetOuter1" result="shadowBlurOuter1"/>
      <feColorMatrix values="0 0 0 0 0 0 0 0 0 0 0 0 0 0 0 0 0 0 0.2 0" in="shadowBlurOuter1"/>
    </filter>
    <linearGradient id="d" x1="50%" x2="50%" y1="0%" y2="100%">
      <stop stop-color="#FF8126" offset="0%"/>
      <stop stop-color="#FF117E" offset="100%"/>
    </linearGradient>
  </defs>
  <g fill="none" fill-rule="evenodd" transform="translate(15 15)">
    <mask id="c" fill="white">
      <use xlink:href="#a"/>
    </mask>
    <use fill="black" filter="url(#b)" xlink:href="#a"/>
    <g transform="translate(-1 -1)" mask="url(#c)">
      <rect width="63" height="63" fill="url(#d)"/>
      <path fill="#000000" d="M17.1259519,-2.46826579e-15 C11.1708853,-1.37433781e-15 9.0114343,0.620046074 6.83435096,1.78436298 C4.65726763,2.94867989 2.94867989,4.65726763 1.78436298,6.83435096 C0.620046074,9.0114343 1.50834415e-15,11.1708853 2.23762948e-15,17.1259519 L0,0 L17.1259519,0 Z M45.8740481,0 L63,0 L63,17.1259519 C63,11.1708853 62.3799539,9.0114343 61.215637,6.83435096 C60.0513201,4.65726763 58.3427324,2.94867989 56.165649,1.78436298 C53.9885657,0.620046074 51.8291147,1.37433781e-15 45.8740481,2.46826579e-15 Z M63,45.8740481 L63,63 L45.8740481,63 C51.8291147,63 53.9885657,62.3799539 56.165649,61.215637 C58.3427324,60.0513201 60.0513201,58.3427324 61.215637,56.165649 C62.3799539,53.9885657 63,51.8291147 63,45.8740481 Z M17.1259519,63 L0,63 L0,45.8740481 C-1.50834415e-15,51.8291147 0.620046074,53.9885657 1.78436298,56.165649 C2.94867989,58.3427324 4.65726763,60.0513201 6.83435096,61.215637 C9.0114343,62.3799539 11.1708853,63 17.1259519,63 Z"/>
      <polyline stroke="#FFFFFF" stroke-width="2.344" points="31.992 0 31.992 31.992 0 31.992" transform="matrix(1 0 0 -1 15.504 47.742)"/>
      <polyline stroke="#FFFFFF" stroke-width="2.344" points="27.07 0 27.07 27.07 0 27.07" transform="matrix(1 0 0 -1 15.504 47.742)"/>
      <polyline stroke="#FFFFFF" stroke-width="2.344" points="22.148 0 22.148 22.148 0 22.148" transform="matrix(1 0 0 -1 15.504 47.742)"/>
    </g>
  </g>
</svg>
